<?xml version="1.0" encoding="utf-8"?>
<!-- Generator: Adobe Illustrator 26.0.0, SVG Export Plug-In . SVG Version: 6.00 Build 0)  -->
<svg version="1.1" id="Ebene_1" xmlns="http://www.w3.org/2000/svg" xmlns:xlink="http://www.w3.org/1999/xlink" x="0px" y="0px"
	 viewBox="0 0 48 48" style="enable-background:new 0 0 48 48;" xml:space="preserve">
<style type="text/css">
	.on{opacity:0;}
</style>
<path class="fill" d="M35.3,15.2c-3-3.1-7.8-3.2-10.9-0.1l-0.1,0.1c-0.1,0.1-0.2,0.2-0.2,0.2c-0.1-0.1-0.1-0.2-0.2-0.2c-3-3.1-7.8-3.2-10.9-0.1
	l-0.1,0.1c-1.5,1.5-2.3,3.5-2.3,5.6s0.8,4.1,2.3,5.6L24,37.8l11.3-11.5c1.5-1.5,2.3-3.5,2.3-5.6S36.8,16.6,35.3,15.2z M33.1,24.2
	L24,33.6l-9.1-9.3c-1.9-1.9-1.9-5.1,0-7l0.1-0.1c1-0.9,2.1-1.4,3.3-1.4c1.2,0,2.4,0.5,3.4,1.5c0.4,0.4,0.7,0.9,1,1.4l0.3,0.8h2
	l0.3-0.8c0.2-0.5,0.5-1,1-1.4l0.1-0.1c1.9-1.9,4.9-1.8,6.7,0.1C35.1,19.2,35.1,22.3,33.1,24.2z"/>
<path class="fill on" d="M35.3,15.2c-3-3.1-7.8-3.2-10.9-0.1l-0.1,0.1c-0.1,0.1-0.2,0.2-0.2,0.2c-0.1-0.1-0.1-0.2-0.2-0.2
	c-3-3.1-7.8-3.2-10.9-0.1l-0.1,0.1c-1.5,1.5-2.3,3.5-2.3,5.6s0.8,4.1,2.3,5.6L24,37.8l11.3-11.5c1.5-1.5,2.3-3.5,2.3-5.6
	S36.8,16.6,35.3,15.2z"/>
</svg>
