<?xml version="1.0" encoding="utf-8"?>
<!-- Generator: Adobe Illustrator 26.0.0, SVG Export Plug-In . SVG Version: 6.00 Build 0)  -->
<svg version="1.1" id="Ebene_1" xmlns="http://www.w3.org/2000/svg" xmlns:xlink="http://www.w3.org/1999/xlink" x="0px" y="0px"
	 viewBox="0 0 48 48" style="enable-background:new 0 0 48 48;" xml:space="preserve">

<path class="fill" d="M28.9,11.9l-1.1,1.1l-3,3l0,0l-2.1,2.1l0,0L14,26.7c-0.2,0.2-0.4,0.5-0.4,0.8l-1.1,6.2c-0.1,0.5,0.1,1,0.4,1.3
	c0.3,0.3,0.7,0.4,1.1,0.4c0.1,0,0.2,0,0.2,0l6.2-1c0.3,0,0.6-0.2,0.8-0.4l13.8-13.9l1.1-1.1L28.9,11.9z M28.9,16.1l3,3l-2,2l-3-3
	L28.9,16.1z M19.5,31.6l-3.6,0.6l0.6-3.7l8.3-8.3l3,3L19.5,31.6z"/>
</svg>
