<svg data-v-c4f752af="" data-v-6e7d1ee0="" width="800" height="800" shape-rendering="crispEdges"
     xmlns="http://www.w3.org/2000/svg" viewBox="0 0 41 41" class="qr-code">
    <path fill="#ffffff00" d="M0,0 h41v41H0z"></path>
    <path fill="#000000"
          d="M0 0h7v1H0zM8 0h1v1H8zM10 0h2v1H10zM14 0h1v1H14zM16 0h2v1H16zM20 0h1v1H20zM22 0h1v1H22zM25 0h1v1H25zM27 0h2v1H27zM31 0h2v1H31zM34,0 h7v1H34zM0 1h1v1H0zM6 1h1v1H6zM8 1h1v1H8zM11 1h1v1H11zM15 1h2v1H15zM18 1h1v1H18zM20 1h1v1H20zM22 1h1v1H22zM25 1h3v1H25zM29 1h1v1H29zM34 1h1v1H34zM40,1 h1v1H40zM0 2h1v1H0zM2 2h3v1H2zM6 2h1v1H6zM9 2h3v1H9zM16 2h1v1H16zM20 2h6v1H20zM27 2h3v1H27zM32 2h1v1H32zM34 2h1v1H34zM36 2h3v1H36zM40,2 h1v1H40zM0 3h1v1H0zM2 3h3v1H2zM6 3h1v1H6zM8 3h1v1H8zM10 3h1v1H10zM12 3h5v1H12zM19 3h3v1H19zM23 3h5v1H23zM29 3h1v1H29zM31 3h1v1H31zM34 3h1v1H34zM36 3h3v1H36zM40,3 h1v1H40zM0 4h1v1H0zM2 4h3v1H2zM6 4h1v1H6zM8 4h3v1H8zM14 4h2v1H14zM17 4h1v1H17zM19 4h3v1H19zM24 4h4v1H24zM29 4h1v1H29zM34 4h1v1H34zM36 4h3v1H36zM40,4 h1v1H40zM0 5h1v1H0zM6 5h1v1H6zM8 5h4v1H8zM14 5h5v1H14zM20 5h1v1H20zM23 5h1v1H23zM25 5h3v1H25zM31 5h1v1H31zM34 5h1v1H34zM40,5 h1v1H40zM0 6h7v1H0zM8 6h1v1H8zM10 6h1v1H10zM12 6h1v1H12zM14 6h1v1H14zM16 6h1v1H16zM18 6h1v1H18zM20 6h1v1H20zM22 6h1v1H22zM24 6h1v1H24zM26 6h1v1H26zM28 6h1v1H28zM30 6h1v1H30zM32 6h1v1H32zM34,6 h7v1H34zM9 7h4v1H9zM16 7h3v1H16zM21 7h1v1H21zM24 7h1v1H24zM27 7h6v1H27zM3 8h1v1H3zM6 8h1v1H6zM15 8h1v1H15zM17 8h1v1H17zM21 8h1v1H21zM23 8h2v1H23zM31 8h1v1H31zM35 8h3v1H35zM39,8 h2v1H39zM0 9h1v1H0zM2 9h4v1H2zM8 9h3v1H8zM12 9h1v1H12zM15 9h1v1H15zM17 9h3v1H17zM21 9h1v1H21zM24 9h2v1H24zM28 9h1v1H28zM30 9h1v1H30zM32 9h3v1H32zM37 9h3v1H37zM0 10h2v1H0zM3 10h6v1H3zM11 10h4v1H11zM20 10h2v1H20zM24 10h2v1H24zM28 10h1v1H28zM31 10h1v1H31zM35 10h4v1H35zM3 11h3v1H3zM8 11h1v1H8zM10 11h1v1H10zM14 11h4v1H14zM19 11h1v1H19zM22 11h1v1H22zM26 11h3v1H26zM30 11h1v1H30zM36 11h1v1H36zM38 11h2v1H38zM0 12h1v1H0zM5 12h4v1H5zM10 12h5v1H10zM17 12h1v1H17zM19 12h3v1H19zM23 12h2v1H23zM26 12h1v1H26zM29 12h4v1H29zM34 12h1v1H34zM37 12h1v1H37zM0 13h1v1H0zM2 13h1v1H2zM4 13h2v1H4zM8 13h1v1H8zM11 13h4v1H11zM16 13h2v1H16zM19 13h2v1H19zM22 13h1v1H22zM24 13h2v1H24zM27 13h3v1H27zM32 13h1v1H32zM34 13h1v1H34zM39 13h1v1H39zM2 14h5v1H2zM8 14h3v1H8zM14 14h1v1H14zM17 14h2v1H17zM21 14h1v1H21zM26 14h1v1H26zM30 14h2v1H30zM34 14h4v1H34zM39,14 h2v1H39zM1 15h2v1H1zM5 15h1v1H5zM7 15h2v1H7zM11 15h1v1H11zM14 15h1v1H14zM17 15h3v1H17zM21 15h1v1H21zM24 15h4v1H24zM29 15h2v1H29zM32 15h1v1H32zM34 15h1v1H34zM36 15h1v1H36zM40,15 h1v1H40zM0 16h1v1H0zM2 16h2v1H2zM5 16h3v1H5zM12 16h2v1H12zM16 16h1v1H16zM20 16h2v1H20zM23 16h3v1H23zM28 16h3v1H28zM35 16h1v1H35zM39,16 h2v1H39zM0 17h1v1H0zM2 17h2v1H2zM5 17h1v1H5zM7 17h1v1H7zM9 17h3v1H9zM14 17h1v1H14zM17 17h1v1H17zM19 17h2v1H19zM22 17h3v1H22zM29 17h2v1H29zM32 17h1v1H32zM34 17h2v1H34zM37,17 h4v1H37zM1 18h1v1H1zM6 18h3v1H6zM10 18h1v1H10zM12 18h4v1H12zM17 18h4v1H17zM22 18h1v1H22zM25 18h2v1H25zM29 18h1v1H29zM32 18h3v1H32zM36 18h1v1H36zM39,18 h2v1H39zM0 19h2v1H0zM4 19h2v1H4zM8 19h3v1H8zM14 19h3v1H14zM18 19h1v1H18zM22 19h1v1H22zM25 19h3v1H25zM31 19h2v1H31zM34 19h2v1H34zM37 19h1v1H37zM39 19h1v1H39zM2 20h1v1H2zM6 20h3v1H6zM15 20h3v1H15zM22 20h1v1H22zM29 20h1v1H29zM34 20h6v1H34zM1 21h3v1H1zM5 21h1v1H5zM8 21h3v1H8zM12 21h1v1H12zM15 21h1v1H15zM19 21h4v1H19zM24 21h2v1H24zM28 21h2v1H28zM32 21h3v1H32zM36 21h1v1H36zM38,21 h3v1H38zM1 22h1v1H1zM3 22h2v1H3zM6 22h1v1H6zM9 22h1v1H9zM12 22h1v1H12zM14 22h1v1H14zM18 22h3v1H18zM22 22h1v1H22zM24 22h1v1H24zM31 22h1v1H31zM33 22h1v1H33zM37 22h1v1H37zM39 22h1v1H39zM1 23h1v1H1zM3 23h3v1H3zM7 23h1v1H7zM11 23h1v1H11zM13 23h2v1H13zM17 23h1v1H17zM19 23h2v1H19zM25 23h1v1H25zM27 23h1v1H27zM32 23h2v1H32zM35 23h2v1H35zM0 24h5v1H0zM6 24h5v1H6zM14 24h1v1H14zM16 24h2v1H16zM19 24h3v1H19zM23 24h2v1H23zM26 24h1v1H26zM28 24h2v1H28zM32 24h1v1H32zM34 24h1v1H34zM38 24h2v1H38zM1 25h1v1H1zM9 25h1v1H9zM11 25h2v1H11zM16 25h3v1H16zM21 25h2v1H21zM25 25h2v1H25zM30 25h2v1H30zM37 25h1v1H37zM0 26h5v1H0zM6 26h1v1H6zM12 26h2v1H12zM16 26h2v1H16zM23 26h3v1H23zM28 26h1v1H28zM32 26h2v1H32zM40,26 h1v1H40zM2 27h1v1H2zM8 27h1v1H8zM10 27h2v1H10zM15 27h2v1H15zM19 27h5v1H19zM25 27h2v1H25zM28 27h3v1H28zM32 27h3v1H32zM36 27h1v1H36zM1 28h1v1H1zM3 28h2v1H3zM6 28h1v1H6zM8 28h2v1H8zM12 28h1v1H12zM18 28h4v1H18zM25 28h3v1H25zM29 28h1v1H29zM33 28h2v1H33zM40,28 h1v1H40zM1 29h2v1H1zM4 29h1v1H4zM7 29h2v1H7zM11 29h2v1H11zM15 29h1v1H15zM17 29h2v1H17zM20 29h1v1H20zM23 29h2v1H23zM26 29h3v1H26zM31 29h3v1H31zM35 29h1v1H35zM37,29 h4v1H37zM0 30h1v1H0zM2 30h3v1H2zM6 30h4v1H6zM11 30h2v1H11zM15 30h4v1H15zM22 30h1v1H22zM25 30h1v1H25zM27 30h3v1H27zM36 30h1v1H36zM38,30 h3v1H38zM2 31h4v1H2zM13 31h1v1H13zM15 31h2v1H15zM18 31h1v1H18zM21 31h1v1H21zM23 31h1v1H23zM29 31h1v1H29zM33 31h1v1H33zM35 31h1v1H35zM37 31h1v1H37zM0 32h1v1H0zM6 32h1v1H6zM8 32h1v1H8zM10 32h1v1H10zM13 32h1v1H13zM15 32h5v1H15zM23 32h1v1H23zM26 32h2v1H26zM30 32h1v1H30zM32 32h8v1H32zM8 33h2v1H8zM11 33h1v1H11zM15 33h1v1H15zM18 33h2v1H18zM22 33h1v1H22zM25 33h2v1H25zM29 33h2v1H29zM32 33h1v1H32zM36 33h2v1H36zM39,33 h2v1H39zM0 34h7v1H0zM9 34h1v1H9zM13 34h1v1H13zM15 34h2v1H15zM18 34h1v1H18zM20 34h4v1H20zM25 34h2v1H25zM28 34h1v1H28zM30 34h1v1H30zM32 34h1v1H32zM34 34h1v1H34zM36 34h2v1H36zM0 35h1v1H0zM6 35h1v1H6zM12 35h2v1H12zM16 35h1v1H16zM19 35h1v1H19zM22 35h6v1H22zM30 35h3v1H30zM36 35h3v1H36zM40,35 h1v1H40zM0 36h1v1H0zM2 36h3v1H2zM6 36h1v1H6zM9 36h1v1H9zM11 36h1v1H11zM13 36h2v1H13zM19 36h1v1H19zM21 36h2v1H21zM24 36h4v1H24zM30 36h1v1H30zM32 36h5v1H32zM40,36 h1v1H40zM0 37h1v1H0zM2 37h3v1H2zM6 37h1v1H6zM8 37h3v1H8zM12 37h3v1H12zM17 37h1v1H17zM20 37h1v1H20zM22 37h1v1H22zM24 37h1v1H24zM26 37h1v1H26zM29 37h3v1H29zM33 37h2v1H33zM36 37h1v1H36zM39 37h1v1H39zM0 38h1v1H0zM2 38h3v1H2zM6 38h1v1H6zM9 38h1v1H9zM11 38h1v1H11zM16 38h1v1H16zM18 38h5v1H18zM24 38h3v1H24zM29 38h1v1H29zM36 38h2v1H36zM40,38 h1v1H40zM0 39h1v1H0zM6 39h1v1H6zM9 39h3v1H9zM15 39h3v1H15zM23 39h1v1H23zM25 39h3v1H25zM29 39h4v1H29zM34 39h2v1H34zM37 39h1v1H37zM39 39h1v1H39zM0 40h7v1H0zM10 40h1v1H10zM13 40h9v1H13zM25 40h2v1H25zM29 40h1v1H29zM32 40h1v1H32zM34 40h3v1H34zM38 40h2v1H38z"></path>
</svg>